<svg width="125" height="99" viewBox="0 0 125 99" fill="none" xmlns="http://www.w3.org/2000/svg">
<path d="M42.5 37.5269H50.5C50.7761 37.5269 51 37.7763 51 38.0838V45.8802C51 46.1878 51.2239 46.4371 51.5 46.4371H58C58.2761 46.4371 58.5 46.1878 58.5 45.8802V38.0838C58.5 37.7763 58.7239 37.5269 59 37.5269H63M8.5 29.1737V95.4431C8.5 95.7507 8.72386 96 9 96H41.5M41.5 96H62.5M41.5 96V29.1737M53 94.3293V77.2965C53 77.1488 53.0527 77.0072 53.1464 76.9028L64 64.8144M3 3.55689V25.8323C3 26.1399 3.22386 26.3892 3.5 26.3892H46C46.2761 26.3892 46.5 26.1399 46.5 25.8323V3.55689C46.5 3.24933 46.2761 3 46 3H37.5C37.2239 3 37 3.24933 37 3.55689V10.7964C37 11.104 36.7761 11.3533 36.5 11.3533H29.5C29.2239 11.3533 29 11.104 29 10.7964V3.55689C29 3.24933 28.7761 3 28.5 3H21.5C21.2239 3 21 3.24933 21 3.55689V10.7964C21 11.104 20.7761 11.3533 20.5 11.3533H14C13.7239 11.3533 13.5 11.104 13.5 10.7964V3.55689C13.5 3.24933 13.2761 3 13 3H3.5C3.22386 3 3 3.24933 3 3.55689ZM20 64.8144H29.5C29.7761 64.8144 30 64.565 30 64.2575V51.739C30 51.5573 29.92 51.3868 29.7864 51.2826L25.2741 47.7646C25.1085 47.6355 24.8889 47.6297 24.7183 47.7505L19.7316 51.285C19.5873 51.3872 19.5 51.5644 19.5 51.7548V64.2575C19.5 64.565 19.7239 64.8144 20 64.8144Z" stroke="white" stroke-width="5"/>
<path d="M82.5 37.5269H74.5C74.2239 37.5269 74 37.7763 74 38.0838V45.8802C74 46.1878 73.7761 46.4371 73.5 46.4371H67C66.7239 46.4371 66.5 46.1878 66.5 45.8802V38.0838C66.5 37.7763 66.2761 37.5269 66 37.5269H62M116.5 29.1737V95.4431C116.5 95.7507 116.276 96 116 96H83.5M83.5 96H62.5M83.5 96V29.1737M72 94.3293V77.2965C72 77.1488 71.9473 77.0072 71.8536 76.9028L60.5 64.8144M122 3.55689V25.8323C122 26.1399 121.776 26.3892 121.5 26.3892H79C78.7239 26.3892 78.5 26.1399 78.5 25.8323V3.55689C78.5 3.24933 78.7239 3 79 3H87.5C87.7761 3 88 3.24933 88 3.55689V10.7964C88 11.104 88.2239 11.3533 88.5 11.3533H95.5C95.7761 11.3533 96 11.104 96 10.7964V3.55689C96 3.24933 96.2239 3 96.5 3H103.5C103.776 3 104 3.24933 104 3.55689V10.7964C104 11.104 104.224 11.3533 104.5 11.3533H111C111.276 11.3533 111.5 11.104 111.5 10.7964V3.55689C111.5 3.24933 111.724 3 112 3H121.5C121.776 3 122 3.24933 122 3.55689ZM105 64.8144H95.5C95.2239 64.8144 95 64.565 95 64.2575V51.739C95 51.5573 95.08 51.3868 95.2136 51.2826L99.7259 47.7646C99.8915 47.6355 100.111 47.6297 100.282 47.7505L105.268 51.285C105.413 51.3872 105.5 51.5644 105.5 51.7548V64.2575C105.5 64.565 105.276 64.8144 105 64.8144Z" stroke="white" stroke-width="5"/>
</svg>
